<?xml version="1.0" standalone="no"?>
<!DOCTYPE svg PUBLIC "-//W3C//DTD SVG 20010904//EN"
 "http://www.w3.org/TR/2001/REC-SVG-20010904/DTD/svg10.dtd">
<svg version="1.0" xmlns="http://www.w3.org/2000/svg"
 width="2000.000000pt" height="2000.000000pt" viewBox="0 0 2000.000000 2000.000000"
 preserveAspectRatio="xMidYMid meet">
<metadata>
Created by potrace 1.14, written by Peter Selinger 2001-2017
</metadata>
<g transform="translate(0.000000,2000.000000) scale(0.100000,-0.100000)"
fill="#000000" stroke="none">
<path d="M0 10000 l0 -10000 10000 0 10000 0 0 10000 0 10000 -10000 0 -10000
0 0 -10000z m17620 4790 c467 -17 1193 -71 1214 -91 6 -5 -37 -9 -100 -9 -502
0 -1708 -100 -2484 -206 -844 -115 -1641 -306 -2375 -571 -350 -126 -813 -340
-1135 -523 -816 -467 -1615 -1233 -2916 -2795 -137 -165 -409 -493 -604 -730
-1074 -1304 -1575 -1877 -2140 -2448 -645 -653 -1235 -1141 -1870 -1547 -575
-368 -1164 -550 -2045 -631 -191 -17 -785 -23 -1026 -10 -322 18 -842 76 -971
109 -15 4 149 7 365 8 797 1 1430 72 2060 229 625 157 985 325 1467 686 418
312 707 565 1115 974 695 695 991 1038 2400 2780 1063 1314 1195 1472 1622
1933 175 189 727 740 905 905 472 435 974 790 1456 1031 951 476 2036 757
3357 871 476 40 1156 54 1705 35z m324 -1322 c-52 -86 -410 -655 -544 -863
-892 -1387 -2049 -3074 -3332 -4855 -622 -864 -636 -883 -1344 -1840 -165
-223 -328 -444 -362 -491 l-62 -86 -572 -6 c-1486 -18 -3683 7 -4768 53 -397
17 -730 34 -727 37 9 8 1160 112 1747 158 896 69 2218 146 3369 195 388 17
706 32 707 33 1 1 88 124 194 272 412 575 729 1011 1182 1625 91 124 291 397
445 607 990 1355 2608 3428 3631 4652 419 501 460 549 436 509z"/>
</g>
</svg>
