<svg width="30" height="30" viewBox="0 0 30 30" fill="none" xmlns="http://www.w3.org/2000/svg">
<path d="M15.0996 0.299988C9.09961 0.299988 5.09961 4.29999 5.09961 10.1C5.09961 17.9 12.2996 27.6 14.1996 29.5C14.2996 29.6 14.4996 29.7 14.6996 29.7C14.8996 29.7 15.0996 29.6 15.1996 29.4C16.1996 28.3 24.7996 18.3 24.7996 10.1C24.8996 3.29999 19.9996 0.299988 15.0996 0.299988ZM14.6996 27.8C12.3996 25.1 6.59961 16.7 6.59961 10.1C6.59961 4.99999 9.89961 1.79999 15.0996 1.79999C18.8996 1.79999 23.3996 3.99999 23.3996 10.1C23.3996 16 18.1996 23.8 14.6996 27.8ZM14.9996 6.09999C12.7996 6.09999 10.9996 7.89999 10.9996 10.1C10.9996 12.3 12.7996 14.1 14.9996 14.1C17.1996 14.1 18.9996 12.3 18.9996 10.1C18.9996 7.89999 17.1996 6.09999 14.9996 6.09999ZM14.9996 12.6C13.5996 12.6 12.4996 11.5 12.4996 10.1C12.4996 8.69999 13.5996 7.59999 14.9996 7.59999C16.3996 7.59999 17.4996 8.69999 17.4996 10.1C17.4996 11.5 16.3996 12.6 14.9996 12.6Z" fill="#FFBD2C"/>
</svg>
