<svg width="30" height="30" viewBox="0 0 30 30" fill="none" xmlns="http://www.w3.org/2000/svg">
<path d="M27.8292 22.787C27.8433 22.7436 27.8528 22.6979 27.8528 22.6498V6.76758C27.8528 6.71915 27.8433 6.67311 27.8289 6.62947C27.8268 6.62349 27.8256 6.61751 27.8232 6.61153C27.8041 6.56041 27.776 6.51437 27.7407 6.47401C27.7383 6.47132 27.738 6.46804 27.7356 6.46534C27.7341 6.46385 27.7323 6.46325 27.7309 6.46176C27.6932 6.4217 27.6486 6.38941 27.5987 6.3652C27.5948 6.3634 27.5918 6.36101 27.588 6.35922C27.5407 6.33799 27.4893 6.32603 27.4352 6.32245C27.4298 6.32215 27.4247 6.32095 27.4193 6.32095C27.4143 6.32065 27.4098 6.31946 27.4047 6.31946H2.53075C2.52567 6.31946 2.52089 6.32065 2.5158 6.32095C2.51102 6.32125 2.50624 6.32215 2.50145 6.32245C2.44675 6.32603 2.39443 6.33829 2.3466 6.35982C2.34361 6.36101 2.34122 6.3631 2.33823 6.3643C2.28741 6.38851 2.24227 6.4214 2.2043 6.46206C2.20281 6.46355 2.20101 6.46385 2.19952 6.46534C2.19713 6.46774 2.19683 6.47102 2.19444 6.47372C2.15916 6.51407 2.13076 6.56041 2.11163 6.61153C2.10924 6.61751 2.10804 6.62349 2.10595 6.62977C2.0916 6.67341 2.08203 6.71945 2.08203 6.76788V22.6504C2.08203 22.6994 2.0919 22.746 2.10654 22.7903C2.10864 22.7963 2.10983 22.8019 2.11193 22.8079C2.13136 22.8593 2.16006 22.9057 2.19563 22.946C2.19772 22.9484 2.19832 22.9514 2.20041 22.9538C2.20221 22.9559 2.2046 22.9571 2.20669 22.9592C2.22134 22.9744 2.23748 22.9879 2.25423 23.001C2.2617 23.0067 2.26828 23.0136 2.27605 23.019C2.29578 23.0327 2.317 23.0438 2.33883 23.054C2.34421 23.0563 2.34899 23.0602 2.35437 23.0623C2.40848 23.0853 2.46797 23.0985 2.53045 23.0985H27.4041C27.4666 23.0985 27.5261 23.0856 27.5802 23.0623C27.5886 23.0587 27.5963 23.0534 27.6044 23.0492C27.6229 23.0399 27.6415 23.0303 27.6585 23.0187C27.6675 23.0124 27.6755 23.0043 27.6842 22.9975C27.6995 22.9852 27.7144 22.9729 27.7276 22.9589C27.73 22.9565 27.7326 22.9547 27.735 22.9523C27.7374 22.9496 27.738 22.946 27.7404 22.9433C27.7754 22.9033 27.8035 22.8572 27.8226 22.8064C27.8256 22.7998 27.8271 22.7936 27.8292 22.787ZM2.97917 7.7846L10.5267 14.6786L2.97917 21.6277V7.7846ZM18.4485 14.3408C18.4174 14.3612 18.3845 14.3782 18.3585 14.4069C18.3487 14.4177 18.3454 14.4317 18.3367 14.4431L14.9676 17.5204L3.68648 7.216H26.2487L18.4485 14.3408ZM11.1916 15.2858L14.665 18.4585C14.7508 18.5369 14.8591 18.576 14.9676 18.576C15.0761 18.576 15.1843 18.5369 15.2698 18.4585L18.7002 15.3253L26.2466 22.2017H3.67991L11.1916 15.2858ZM19.3654 14.7178L26.956 7.7846V21.6348L19.3654 14.7178Z" fill="#FFBD2C"/>
</svg>
