<svg width="312" height="64" viewBox="0 0 312 64" fill="none" xmlns="http://www.w3.org/2000/svg">
<g clip-path="url(#clip0_28_170)">
<path d="M0 60.7694C2.84667 60.8782 5.69739 60.8044 8.53462 60.5484C11.3354 60.3252 14.1097 59.8443 16.8222 59.1119C19.4701 58.4457 21.9819 57.3239 24.2453 55.7968C26.5219 54.1703 28.693 52.4008 30.7454 50.4993C34.8056 46.5924 38.6075 42.4257 42.1271 38.0256C45.7541 33.651 49.2772 29.2114 52.9237 24.7524C56.5619 20.2301 60.5338 15.9867 64.8059 12.0577C67.0166 10.0795 69.4108 8.3165 71.956 6.79261C73.2592 6.06353 74.6001 5.40393 75.973 4.81657C77.325 4.24456 78.7095 3.71805 80.1071 3.25004C82.8852 2.34066 85.7271 1.63888 88.6092 1.15051C91.4675 0.674534 94.3488 0.34908 97.2413 0.175491C102.983 -0.121207 108.74 0.0549072 114.454 0.702017C108.756 0.843445 103.071 1.29478 97.4233 2.05403C91.8544 2.77718 86.3855 4.12917 81.1211 6.0841C78.5593 7.08675 76.0869 8.30443 73.7305 9.72414C71.4213 11.2032 69.2598 12.9011 67.2759 14.7942C65.2479 16.6858 63.3108 18.6943 61.4258 20.8133C59.5408 22.9323 57.7078 25.0514 55.9073 27.2354C52.2672 31.597 48.6792 36.0755 44.9156 40.4111C41.1521 44.7467 37.239 49.0432 32.7279 52.7613C30.4959 54.649 28.1278 56.3696 25.6429 57.9094C23.0507 59.4147 20.2114 60.4469 17.2577 60.9579C14.3913 61.4582 11.4826 61.6759 8.57362 61.6079C5.6974 61.5673 2.82959 61.2868 0 60.7694Z" fill="white"/>
<path d="M42.2966 60.7175C45.5076 60.828 48.7251 60.8605 51.9362 60.9255L61.5758 60.9775L71.2155 60.906H71.9695L72.431 60.256C75.5445 56.0114 78.7231 51.8058 81.7781 47.5288L86.3932 41.1197L90.9432 34.6586C92.4707 32.5135 93.9398 30.3295 95.4348 28.1585C96.9298 25.9874 98.3988 23.8034 99.8614 21.6128C102.786 17.2253 105.672 12.8182 108.428 8.31363C104.983 12.3177 101.662 16.4063 98.3793 20.5273C96.7348 22.5879 95.1293 24.6484 93.4913 26.7349C91.8532 28.8215 90.2412 30.882 88.6682 32.9945L83.8971 39.2866L79.2236 45.6827C76.0645 49.8948 70.3834 57.8575 70.3834 57.8575L61.5368 58.2345L51.9102 58.7675C48.7056 58.9885 45.4946 59.1835 42.29 59.4565C39.0855 59.7295 35.8745 60.0025 32.6699 60.3405C35.8615 60.5225 39.079 60.6655 42.2966 60.7175Z" fill="#FFBD2C"/>
<path d="M120.59 53.1838C119.94 53.1838 119.206 53.1838 118.296 53.1383C117.386 53.0928 116.45 53.0603 115.468 53.0018C114.487 52.9433 113.596 52.8653 112.797 52.7873C112.178 52.734 111.561 52.6494 110.951 52.5338V50.3173H121.201C122.095 50.3295 122.988 50.2512 123.866 50.0833C124.555 49.9608 125.177 49.5966 125.621 49.0563C126.1 48.3541 126.329 47.5118 126.271 46.6642V45.5462C126.297 45.0671 126.214 44.5883 126.028 44.1459C125.842 43.7035 125.559 43.3089 125.199 42.9917C124.477 42.3872 123.327 42.0816 121.734 42.0816H118.224C116.903 42.1023 115.586 41.9114 114.324 41.5161C113.248 41.1834 112.315 40.4961 111.679 39.5661C110.995 38.4416 110.669 37.1361 110.743 35.8221V34.522C110.69 33.1824 111.004 31.8538 111.653 30.6805C112.326 29.6315 113.334 28.8411 114.513 28.4379C116.13 27.8846 117.835 27.6291 119.544 27.6839C120.415 27.6839 121.422 27.7164 122.56 27.7814C123.697 27.8464 124.815 27.9309 125.907 28.0349C126.999 28.1389 127.89 28.2624 128.572 28.3859V30.635H118.907C117.634 30.5624 116.364 30.8364 115.234 31.428C114.376 31.961 113.934 32.988 113.934 34.522V35.549C113.876 36.3231 114.09 37.0932 114.539 37.7266C114.984 38.2292 115.587 38.566 116.248 38.6821C117.089 38.8482 117.946 38.9267 118.803 38.9161H122.358C124.633 38.9161 126.395 39.4469 127.643 40.5086C128.281 41.083 128.78 41.7941 129.104 42.5888C129.429 43.3835 129.569 44.2411 129.515 45.0977V46.8267C129.657 48.1591 129.298 49.4965 128.507 50.5781C127.716 51.6598 126.551 52.408 125.238 52.6768C123.717 53.0469 122.155 53.2173 120.59 53.1838ZM141.391 64L144.576 52.9043C143.737 52.8608 142.912 52.6716 142.138 52.3453C141.227 51.9474 140.424 51.3366 139.798 50.5643C138.979 49.5242 138.375 48.3308 138.024 47.0542L132.031 27.9114H135.931L141.495 46.2612C141.738 47.036 142.112 47.7635 142.6 48.4128C142.92 48.8229 143.326 49.1579 143.789 49.3943C144.118 49.5613 144.475 49.6649 144.842 49.6998H145.382L151.791 27.8854H155.587L146.487 59.3394L144.329 63.974L141.391 64ZM160 52.9173V27.9114H162.899L163.692 30.674C164.991 29.7755 166.389 29.0296 167.859 28.4509C169.435 27.8168 171.119 27.4924 172.819 27.4954C174.385 27.4208 175.937 27.8292 177.265 28.6654C178.376 29.4299 179.239 30.5033 179.748 31.753C180.287 33.0752 180.556 34.4917 180.541 35.9196V52.9173H176.849V36.3356C176.862 35.3546 176.639 34.3849 176.199 33.508C175.803 32.7036 175.188 32.0276 174.424 31.558C173.563 31.0654 172.582 30.8223 171.59 30.856C170.622 30.8506 169.656 30.953 168.71 31.1615C167.844 31.3564 166.999 31.6373 166.188 32C165.389 32.364 164.557 32.793 163.679 33.3V52.9173H160ZM192.384 53.1968C190.712 53.2638 189.079 52.6762 187.834 51.5588C187.224 50.9591 186.751 50.2356 186.444 49.4373C186.138 48.6389 186.007 47.7842 186.059 46.9307V45.1172C186.025 44.2288 186.181 43.3434 186.517 42.5204C186.854 41.6975 187.362 40.9561 188.009 40.3461C189.309 39.1241 191.259 38.5196 193.859 38.5196H202.309V35.432C202.334 34.5206 202.149 33.6157 201.77 32.7865C201.35 31.9977 200.657 31.3897 199.82 31.077C198.538 30.6117 197.178 30.4041 195.816 30.466H188.016V28.2689C189.108 28.0804 190.375 27.9114 191.831 27.7554C193.533 27.5874 195.243 27.5093 196.953 27.5214C198.672 27.4397 200.389 27.6936 202.01 28.2689C203.264 28.7287 204.315 29.6145 204.981 30.7715C205.675 32.1565 206.004 33.6958 205.936 35.2435V52.9173H203.083L202.381 50.0638C202.026 50.3237 201.642 50.5418 201.237 50.7138C200.587 51.0258 199.787 51.3638 198.799 51.7668C197.763 52.172 196.701 52.5086 195.621 52.7743C194.561 53.0365 193.475 53.174 192.384 53.1838V53.1968ZM193.931 50.4408C194.575 50.4609 195.22 50.3975 195.848 50.2523C196.563 50.0963 197.298 49.9143 198.045 49.7128C198.793 49.5113 199.488 49.3033 200.132 49.0628C200.775 48.8223 201.289 48.6598 201.698 48.4973C201.91 48.4065 202.127 48.3284 202.348 48.2632V40.4111L194.717 40.7361C192.936 40.8011 191.669 41.2366 190.902 42.0362C190.123 42.8896 189.712 44.0151 189.758 45.1692V46.2937C189.722 47.1452 189.949 47.9871 190.408 48.7053C190.795 49.2895 191.35 49.7427 192 50.0053C192.617 50.2483 193.269 50.391 193.931 50.4278V50.4408ZM213.022 64.013V27.9114H216.018L216.72 30.5115C217.413 30.0248 218.141 29.5903 218.898 29.2114C219.828 28.7451 220.798 28.3623 221.797 28.0674C222.806 27.7611 223.855 27.6035 224.91 27.5994C226.362 27.5544 227.797 27.9193 229.051 28.6524C230.194 29.3595 231.151 30.3316 231.839 31.4865C232.583 32.7444 233.104 34.1208 233.38 35.5556C233.698 37.1434 233.855 38.7593 233.848 40.3786C233.906 42.776 233.583 45.1673 232.892 47.4637C232.394 49.177 231.371 50.691 229.967 51.7928C228.484 52.8142 226.709 53.3253 224.91 53.2488C223.471 53.2429 222.041 53.0127 220.672 52.5663C219.299 52.1361 217.974 51.5631 216.72 50.8568V64.013H213.022ZM223.883 50.1093C225.007 50.1282 226.111 49.8187 227.062 49.2188C228.112 48.4769 228.899 47.4209 229.311 46.2027C229.944 44.32 230.228 42.3374 230.149 40.3526C230.22 38.4326 229.92 36.5169 229.265 34.7105C228.814 33.4817 228.017 32.4096 226.971 31.623C226.064 30.9938 224.987 30.658 223.883 30.661C222.533 30.6459 221.192 30.8772 219.925 31.3435C218.826 31.7461 217.755 32.2217 216.72 32.767V48.0747C217.83 48.6724 218.998 49.1579 220.204 49.5243C221.396 49.8942 222.635 50.0869 223.883 50.0963V50.1093Z" fill="white"/>
<path d="M246.626 52.9498C245.379 52.9927 244.141 52.7294 243.019 52.1828C242.014 51.622 241.237 50.7276 240.822 49.6543C240.264 48.1347 240.01 46.5203 240.074 44.9027V17.1992H243.773V44.4672C243.725 45.6134 243.865 46.7597 244.189 47.8603C244.391 48.521 244.825 49.0866 245.411 49.4528C245.99 49.7649 246.623 49.9634 247.276 50.0378L249.805 50.3173V52.9824L246.626 52.9498ZM254.426 23.4654C254.324 23.4823 254.22 23.4746 254.122 23.443C254.023 23.4114 253.934 23.3568 253.861 23.2837C253.788 23.2106 253.733 23.1212 253.701 23.0228C253.67 22.9244 253.662 22.8198 253.679 22.7179V19.0713C253.661 18.9688 253.668 18.8636 253.699 18.7643C253.73 18.665 253.784 18.5746 253.857 18.5007C253.931 18.4268 254.021 18.3716 254.12 18.3397C254.219 18.3078 254.324 18.3001 254.426 18.3173H257.026C257.127 18.3088 257.228 18.3237 257.322 18.3609C257.415 18.3982 257.499 18.4567 257.566 18.5318C257.681 18.6872 257.739 18.878 257.728 19.0713V22.7179C257.728 23.2184 257.494 23.4654 257.026 23.4654H254.426ZM253.828 52.9174V27.9114H257.527V52.9174H253.828ZM264.638 52.9174V27.9114H267.544L268.337 30.674C269.636 29.7755 271.034 29.0296 272.503 28.4509C274.08 27.8168 275.764 27.4924 277.463 27.4954C279.03 27.4208 280.582 27.8292 281.909 28.6655C283.02 29.4299 283.884 30.5033 284.392 31.753C284.931 33.0752 285.201 34.4918 285.185 35.9196V52.9174H281.486V36.3356C281.5 35.3546 281.277 34.3848 280.836 33.508C280.441 32.7036 279.825 32.0276 279.062 31.558C278.201 31.0654 277.219 30.8223 276.228 30.856C275.26 30.8506 274.294 30.9531 273.348 31.1615C272.48 31.3574 271.633 31.6383 270.82 32C270.027 32.364 269.195 32.793 268.317 33.3V52.9174H264.638ZM301.689 53.1969C299.088 53.1969 297.021 52.8069 295.487 52.0268C294.71 51.6107 294.023 51.045 293.465 50.3623C292.908 49.6796 292.49 48.8933 292.237 48.0488C291.494 45.5626 291.16 42.972 291.249 40.3786C291.249 37.0723 291.585 34.4896 292.257 32.6305C292.521 31.794 292.949 31.0184 293.516 30.3489C294.083 29.6793 294.778 29.1292 295.559 28.7305C297.508 27.8998 299.618 27.5156 301.734 27.6059C303.566 27.5518 305.394 27.8044 307.142 28.3534C308.453 28.7914 309.554 29.7022 310.23 30.908C310.977 32.4572 311.323 34.1692 311.237 35.8871C311.295 37.1252 310.993 38.3536 310.366 39.4231C309.786 40.3356 308.913 41.0234 307.89 41.3732C306.661 41.7873 305.37 41.9852 304.074 41.9582H294.974C294.949 43.6128 295.168 45.262 295.624 46.8528C295.793 47.4251 296.078 47.9568 296.46 48.4152C296.842 48.8735 297.314 49.2487 297.847 49.5178C299.349 50.1444 300.973 50.4244 302.599 50.3368H310.626V52.5858C309.192 52.7678 307.788 52.9239 306.414 53.0539C305.04 53.1839 303.472 53.2272 301.708 53.1839L301.689 53.1969ZM294.902 39.4881H303.795C304.888 39.5699 305.98 39.2988 306.908 38.7146C307.558 38.2011 307.916 37.2716 307.916 35.9326C307.969 34.7808 307.746 33.6331 307.266 32.585C306.857 31.7936 306.158 31.1906 305.316 30.9015C304.159 30.5313 302.947 30.3642 301.734 30.4075C300.321 30.342 298.912 30.6069 297.619 31.181C297.098 31.467 296.642 31.8578 296.28 32.3287C295.917 32.7997 295.656 33.3407 295.513 33.9175C295.052 35.7323 294.853 37.6039 294.922 39.4751L294.902 39.4881Z" fill="#FFBD2C"/>
</g>
<defs>
<clipPath id="clip0_28_170">
<rect width="311.257" height="64" fill="white"/>
</clipPath>
</defs>
</svg>
