<svg width="30" height="30" viewBox="0 0 30 30" fill="none" xmlns="http://www.w3.org/2000/svg">
<path d="M20.7078 2.5697H8.36716C6.78349 2.5697 5.46875 3.85456 5.46875 5.43823V25.2191C5.46875 26.8028 6.75361 28.0876 8.36716 28.0876H20.7078C22.2915 28.0876 23.6062 26.8028 23.6062 25.2191V5.43823C23.6062 3.85456 22.3213 2.5697 20.7078 2.5697ZM22.7098 25.2191C22.7098 26.3247 21.8134 27.1912 20.7078 27.1912H8.36716C7.26158 27.1912 6.36516 26.2948 6.36516 25.2191V5.43823C6.36516 4.33265 7.26158 3.46612 8.36716 3.46612H20.7078C21.8134 3.46612 22.7098 4.36253 22.7098 5.43823V25.2191Z" fill="#FFBD2C"/>
<path d="M18.1978 5.40836H10.8173C10.5783 5.40836 10.3691 5.61752 10.3691 5.85656C10.3691 6.09561 10.5783 6.30477 10.8173 6.30477H18.1978C18.4369 6.30477 18.646 6.09561 18.646 5.85656C18.646 5.61752 18.4369 5.40836 18.1978 5.40836Z" fill="#FFBD2C"/>
<path d="M14.5233 22.5298C13.6867 22.5298 13.0293 23.2171 13.0293 24.0239C13.0293 24.4123 13.1787 24.8008 13.4775 25.0697C13.7464 25.3386 14.1349 25.488 14.5233 25.488C15.36 25.488 16.0173 24.8008 16.0173 23.994C16.0173 23.1872 15.36 22.5298 14.5233 22.5298ZM14.5532 24.6215C14.4038 24.6215 14.2544 24.5617 14.1349 24.4422C14.0154 24.3227 13.9556 24.1733 13.9556 24.0239C13.9556 23.6952 14.2245 23.4263 14.5532 23.4263C14.8819 23.4263 15.1508 23.6952 15.1508 24.0239C15.1508 24.3526 14.8819 24.6215 14.5532 24.6215Z" fill="#FFBD2C"/>
</svg>
